<svg width="1607" height="1086" viewBox="0 0 1607 1086" fill="none" xmlns="http://www.w3.org/2000/svg">
<g filter="url(#filter0_f_16_60)">
<path d="M184 177.966V615.601L292.366 532.29L366.855 574.372C366.855 574.372 359.276 590.56 359.276 619.454C359.276 648.348 389.172 780.446 590.745 780.446H1113.4C1113.4 780.446 1333.04 777.631 1333.04 611.897C1333.04 611.897 1332.39 573.372 1319.64 548.145C1319.64 548.145 1389 493.023 1389 384.263C1389 275.502 1279.29 156.406 1134.79 156.406H1041.13V41.941C1041.13 0.0444183 1006.03 -33.9248 962.733 -33.9248H893.067V-125.386C893.067 -135.943 888.933 -146.13 881.468 -153.836L816.51 -221.292C801.275 -237.11 775.782 -238.333 759.016 -223.997L755.227 -220.774C736.853 -205.104 736.585 -177.47 754.614 -161.43L809.62 -112.458C814.022 -108.531 816.548 -102.974 816.548 -97.1956V-32.1837H719.437C676.144 -32.1837 641.043 1.78549 641.043 43.682V155.147H529.538C512.619 155.147 496.006 159.259 481.154 167.038L289.725 267.76L184 177.966Z" fill="#6705FF"/>
<path opacity="0.3" d="M184 227.308V664.944L292.366 581.632L366.855 623.714C366.855 623.714 359.276 639.902 359.276 668.796C359.276 697.728 389.172 829.789 590.745 829.789H1113.4C1113.4 829.789 1333.04 826.973 1333.04 661.239C1333.04 661.239 1332.39 622.714 1319.64 597.487C1319.64 597.487 1389 542.366 1389 433.605C1389 324.844 1279.29 205.749 1134.79 205.749H1041.13V91.2832C1041.13 49.3867 1006.03 15.4175 962.733 15.4175H893.067V-76.0437C893.067 -86.6012 888.933 -96.7882 881.468 -104.493L816.51 -171.95C801.275 -187.768 775.782 -188.99 759.016 -174.654L755.227 -171.431C736.853 -155.762 736.585 -128.127 754.614 -112.087L809.658 -63.1895C814.06 -59.2628 816.587 -53.7063 816.587 -47.9274V17.0845H719.475C676.182 17.0845 641.081 51.0536 641.081 92.9502V204.415H529.538C512.619 204.415 496.006 208.527 481.154 216.306L289.725 317.028L184 227.308Z" fill="#0CE9E9"/>
<path d="M1260.12 606.711C1260.12 636.235 1238.57 662.906 1209.36 682.243C1180.19 701.58 1143.41 713.545 1112.94 713.545H581.137C520.16 713.545 431.278 665.722 431.278 606.711H1260.12Z" fill="#BF14DB"/>
<path d="M1242.89 606.711C1234.13 618.009 1222.53 628.196 1209.36 636.902C1180.19 656.238 1143.41 668.204 1112.94 668.204H581.137C536.925 668.204 478.015 643.051 448.962 606.711H1242.89Z" fill="#60E5ED"/>
<path d="M1314.05 381.115V382.078C1314.05 467.167 1242.78 536.143 1154.85 536.143H500.255C483.489 536.143 466.953 532.364 451.948 525.141L273.188 438.606V389.56C293.782 404.489 339.946 428.568 423.048 428.568H1197.69C1197.69 428.568 1270.64 435.606 1314.05 381.115Z" fill="#23EB5B"/>
<path d="M1314.05 381.115C1270.64 435.607 1197.69 428.568 1197.69 428.568H423.048C339.946 428.568 293.782 404.49 273.188 389.561V354.036L504.198 239.497C519.432 231.94 536.313 228.013 553.423 228.013H1154.85C1198.8 228.013 1238.6 245.275 1267.43 273.132C1291.31 296.248 1307.62 326.587 1312.48 360.519C1313.48 367.261 1314.01 374.114 1314.05 381.115Z" fill="#60E5ED"/>
<path d="M966.675 49.1276V155.073H715.57V49.1276C715.57 42.3115 721.273 36.829 728.278 36.829H953.967C960.972 36.829 966.675 42.3115 966.675 49.1276Z" fill="#0CE9E9"/>
<path d="M671.436 441.644C705.429 441.644 732.987 414.975 732.987 382.078C732.987 349.18 705.429 322.511 671.436 322.511C637.442 322.511 609.884 349.18 609.884 382.078C609.884 414.975 637.442 441.644 671.436 441.644Z" fill="#38FF70"/>
<path d="M828.682 441.644C862.676 441.644 890.234 414.975 890.234 382.078C890.234 349.18 862.676 322.511 828.682 322.511C794.688 322.511 767.131 349.18 767.131 382.078C767.131 414.975 794.688 441.644 828.682 441.644Z" fill="#12E928"/>
<path d="M985.93 441.644C1019.92 441.644 1047.48 414.975 1047.48 382.078C1047.48 349.18 1019.92 322.511 985.93 322.511C951.936 322.511 924.378 349.18 924.378 382.078C924.378 414.975 951.936 441.644 985.93 441.644Z" fill="#12E928"/>
<path d="M1143.18 441.644C1177.17 441.644 1204.73 414.975 1204.73 382.078C1204.73 349.18 1177.17 322.511 1143.18 322.511C1109.18 322.511 1081.62 349.18 1081.62 382.078C1081.62 414.975 1109.18 441.644 1143.18 441.644Z" fill="#12E928"/>
<path d="M715.57 67.8716L714.919 49.0163C714.766 45.7194 716.029 42.3114 718.364 39.7553C720.699 37.1993 724.144 35.5324 727.781 35.2731C740.872 34.6433 753.772 34.2729 766.786 33.9765C792.739 33.3097 818.692 33.1245 844.683 33.0504C870.635 33.1615 896.588 33.3098 922.579 34.0136L942.063 34.5692L951.785 34.9026L954.235 35.0137C955.154 35.0508 956.072 35.199 956.953 35.4212C958.752 35.8657 960.436 36.6437 961.891 37.6809C964.8 39.7553 966.79 42.9041 967.365 46.2751C967.671 47.9791 967.518 49.646 967.479 51.1648L967.365 55.8694L966.676 74.7247L965.987 55.8694L965.872 51.1648C965.833 49.572 965.833 48.0532 965.412 46.6826C964.647 43.8672 962.733 41.4594 960.245 40.0517C959.02 39.3479 957.642 38.8663 956.264 38.6441C954.924 38.4218 953.469 38.5699 951.785 38.607L942.063 38.9404L922.579 39.4961C896.626 40.1999 870.674 40.348 844.683 40.4592C818.73 40.3851 792.777 40.2369 766.786 39.5331C753.81 39.2367 740.757 38.8293 727.896 38.2736C722.116 37.9773 716.412 42.867 716.183 48.9793L715.57 67.8716Z" fill="#12E928"/>
<path d="M1314.05 381.115C1313.59 361.296 1309.27 341.663 1301.3 323.549C1293.34 305.434 1281.67 288.95 1267.31 275.169C1253.04 261.315 1235.96 250.202 1217.36 242.682C1198.8 235.125 1178.7 231.161 1158.64 231.05L913.048 231.68C831.171 231.31 749.294 231.495 667.378 230.569L605.942 230.013L575.242 229.643L559.893 229.42C554.763 229.309 549.749 229.309 544.658 229.68C539.605 230.013 534.514 230.532 529.576 231.495C524.6 232.31 519.969 234.31 515.299 236.31C505.959 240.311 496.734 244.608 487.509 248.905L432.388 275.132C450.417 265.76 468.561 256.536 486.934 247.757C496.121 243.349 505.27 238.978 514.61 234.829C519.241 232.791 524.064 230.68 529.155 229.643C534.208 228.494 539.337 227.827 544.467 227.346C549.558 226.827 554.802 226.642 559.893 226.642L575.242 226.42L605.942 226.049L667.34 225.494C749.217 224.53 831.133 224.716 913.01 224.382C953.968 224.234 994.887 224.531 1035.84 224.605C1076.8 224.79 1117.68 224.642 1158.76 225.16C1179.62 225.679 1200.33 230.124 1219.35 238.274C1238.38 246.386 1255.72 258.129 1270.07 272.576C1298.85 301.434 1315.16 341.404 1314.05 381.115Z" fill="#F2F2F2"/>
<path d="M431.278 606.711C465.805 605.859 500.332 605.526 534.897 604.896L638.516 603.859C707.57 603.266 776.663 603.303 845.717 603.007C914.771 603.303 983.863 603.266 1052.92 603.859L1156.54 604.896C1191.06 605.526 1225.59 605.859 1260.16 606.711C1225.63 607.563 1191.1 607.897 1156.54 608.526L1052.92 609.564C983.863 610.156 914.771 610.119 845.717 610.416C776.663 610.119 707.57 610.156 638.516 609.564L534.897 608.526C500.37 607.897 465.843 607.526 431.278 606.711Z" fill="#12E928"/>
</g>
<defs>
<filter id="filter0_f_16_60" x="-72" y="-490" width="1717" height="1575.79" filterUnits="userSpaceOnUse" color-interpolation-filters="sRGB">
<feFlood flood-opacity="0" result="BackgroundImageFix"/>
<feBlend mode="normal" in="SourceGraphic" in2="BackgroundImageFix" result="shape"/>
<feGaussianBlur stdDeviation="128" result="effect1_foregroundBlur_16_60"/>
</filter>
</defs>
</svg>
