<svg xmlns="http://www.w3.org/2000/svg" xmlns:xlink="http://www.w3.org/1999/xlink" version="1.1" width="256" height="256" viewBox="0 0 256 256" xml:space="preserve">

<defs>
</defs>
    <g style="stroke: none; stroke-width: 0; stroke-dasharray: none; stroke-linecap: butt; stroke-linejoin: miter; stroke-miterlimit: 10; fill: none; fill-rule: nonzero; opacity: 1;" transform="translate(1.4065934065934016 1.4065934065934016) scale(2.81 2.81)" >
	<rect x="1" y="54.29" rx="0" ry="0" width="37.76" height="17.77" style="stroke: none; stroke-width: 1; stroke-dasharray: none; stroke-linecap: butt; stroke-linejoin: miter; stroke-miterlimit: 10; fill: rgb(255,165,17); fill-rule: nonzero; opacity: 1;" transform=" matrix(1 0 0 1 0 0) "/>
        <rect x="38.76" y="54.29" rx="0" ry="0" width="37.76" height="17.77" style="stroke: none; stroke-width: 1; stroke-dasharray: none; stroke-linecap: butt; stroke-linejoin: miter; stroke-miterlimit: 10; fill: rgb(0,100,219); fill-rule: nonzero; opacity: 1;" transform=" matrix(1 0 0 1 0 0) "/>
        <rect x="44.09" y="48.19" rx="0" ry="0" width="8.69" height="6.11" style="stroke: none; stroke-width: 1; stroke-dasharray: none; stroke-linecap: butt; stroke-linejoin: miter; stroke-miterlimit: 10; fill: rgb(0,80,196); fill-rule: nonzero; opacity: 1;" transform=" matrix(1 0 0 1 0 0) "/>
        <rect x="62.5" y="48.19" rx="0" ry="0" width="8.69" height="6.11" style="stroke: none; stroke-width: 1; stroke-dasharray: none; stroke-linecap: butt; stroke-linejoin: miter; stroke-miterlimit: 10; fill: rgb(0,80,196); fill-rule: nonzero; opacity: 1;" transform=" matrix(1 0 0 1 0 0) "/>
        <rect x="1.08" y="36.53" rx="0" ry="0" width="37.76" height="17.77" style="stroke: none; stroke-width: 1; stroke-dasharray: none; stroke-linecap: butt; stroke-linejoin: miter; stroke-miterlimit: 10; fill: rgb(249,96,88); fill-rule: nonzero; opacity: 1;" transform=" matrix(1 0 0 1 0 0) "/>
        <rect x="6.41" y="30.42" rx="0" ry="0" width="8.69" height="6.11" style="stroke: none; stroke-width: 1; stroke-dasharray: none; stroke-linecap: butt; stroke-linejoin: miter; stroke-miterlimit: 10; fill: rgb(233,65,65); fill-rule: nonzero; opacity: 1;" transform=" matrix(1 0 0 1 0 0) "/>
        <rect x="24.82" y="30.42" rx="0" ry="0" width="8.69" height="6.11" style="stroke: none; stroke-width: 1; stroke-dasharray: none; stroke-linecap: butt; stroke-linejoin: miter; stroke-miterlimit: 10; fill: rgb(233,65,65); fill-rule: nonzero; opacity: 1;" transform=" matrix(1 0 0 1 0 0) "/>
        <rect x="51.24" y="24.04" rx="0" ry="0" width="37.76" height="17.77" style="stroke: none; stroke-width: 1; stroke-dasharray: none; stroke-linecap: butt; stroke-linejoin: miter; stroke-miterlimit: 10; fill: rgb(242,136,232); fill-rule: nonzero; opacity: 1;" transform=" matrix(1 0 0 1 0 0) "/>
        <rect x="56.57" y="17.94" rx="0" ry="0" width="8.69" height="6.11" style="stroke: none; stroke-width: 1; stroke-dasharray: none; stroke-linecap: butt; stroke-linejoin: miter; stroke-miterlimit: 10; fill: rgb(216,102,211); fill-rule: nonzero; opacity: 1;" transform=" matrix(1 0 0 1 0 0) "/>
        <rect x="74.98" y="17.94" rx="0" ry="0" width="8.69" height="6.11" style="stroke: none; stroke-width: 1; stroke-dasharray: none; stroke-linecap: butt; stroke-linejoin: miter; stroke-miterlimit: 10; fill: rgb(216,102,211); fill-rule: nonzero; opacity: 1;" transform=" matrix(1 0 0 1 0 0) "/>
        <path d="M 38.759 73.062 H 1 c -0.552 0 -1 -0.447 -1 -1 V 54.294 c 0 -0.553 0.448 -1 1 -1 h 37.759 c 0.552 0 1 0.447 1 1 v 17.768 C 39.759 72.614 39.311 73.062 38.759 73.062 z M 2 71.062 h 35.759 V 55.294 H 2 V 71.062 z" style="stroke: none; stroke-width: 1; stroke-dasharray: none; stroke-linecap: butt; stroke-linejoin: miter; stroke-miterlimit: 10; fill: rgb(0,0,0); fill-rule: nonzero; opacity: 1;" transform=" matrix(1 0 0 1 0 0) " stroke-linecap="round" />
        <path d="M 76.518 73.062 H 38.759 c -0.552 0 -1 -0.447 -1 -1 V 54.294 c 0 -0.553 0.448 -1 1 -1 h 37.759 c 0.553 0 1 0.447 1 1 v 17.768 C 77.518 72.614 77.07 73.062 76.518 73.062 z M 39.759 71.062 h 35.759 V 55.294 H 39.759 V 71.062 z" style="stroke: none; stroke-width: 1; stroke-dasharray: none; stroke-linecap: butt; stroke-linejoin: miter; stroke-miterlimit: 10; fill: rgb(0,0,0); fill-rule: nonzero; opacity: 1;" transform=" matrix(1 0 0 1 0 0) " stroke-linecap="round" />
        <path d="M 52.778 55.294 h -8.692 c -0.552 0 -1 -0.447 -1 -1 v -6.105 c 0 -0.553 0.448 -1 1 -1 h 8.692 c 0.553 0 1 0.447 1 1 v 6.105 C 53.778 54.847 53.331 55.294 52.778 55.294 z M 45.086 53.294 h 6.692 v -4.105 h -6.692 V 53.294 z" style="stroke: none; stroke-width: 1; stroke-dasharray: none; stroke-linecap: butt; stroke-linejoin: miter; stroke-miterlimit: 10; fill: rgb(0,0,0); fill-rule: nonzero; opacity: 1;" transform=" matrix(1 0 0 1 0 0) " stroke-linecap="round" />
        <path d="M 71.19 55.294 h -8.692 c -0.553 0 -1 -0.447 -1 -1 v -6.105 c 0 -0.553 0.447 -1 1 -1 h 8.692 c 0.553 0 1 0.447 1 1 v 6.105 C 72.19 54.847 71.743 55.294 71.19 55.294 z M 63.498 53.294 h 6.692 v -4.105 h -6.692 V 53.294 z" style="stroke: none; stroke-width: 1; stroke-dasharray: none; stroke-linecap: butt; stroke-linejoin: miter; stroke-miterlimit: 10; fill: rgb(0,0,0); fill-rule: nonzero; opacity: 1;" transform=" matrix(1 0 0 1 0 0) " stroke-linecap="round" />
        <path d="M 38.841 55.294 H 1.082 c -0.552 0 -1 -0.447 -1 -1 V 36.526 c 0 -0.552 0.448 -1 1 -1 h 37.759 c 0.552 0 1 0.448 1 1 v 17.768 C 39.841 54.847 39.393 55.294 38.841 55.294 z M 2.082 53.294 h 35.759 V 37.526 H 2.082 V 53.294 z" style="stroke: none; stroke-width: 1; stroke-dasharray: none; stroke-linecap: butt; stroke-linejoin: miter; stroke-miterlimit: 10; fill: rgb(0,0,0); fill-rule: nonzero; opacity: 1;" transform=" matrix(1 0 0 1 0 0) " stroke-linecap="round" />
        <path d="M 15.102 37.526 H 6.41 c -0.552 0 -1 -0.448 -1 -1 V 30.42 c 0 -0.552 0.448 -1 1 -1 h 8.692 c 0.552 0 1 0.448 1 1 v 6.106 C 16.102 37.079 15.654 37.526 15.102 37.526 z M 7.41 35.526 h 6.692 V 31.42 H 7.41 V 35.526 z" style="stroke: none; stroke-width: 1; stroke-dasharray: none; stroke-linecap: butt; stroke-linejoin: miter; stroke-miterlimit: 10; fill: rgb(0,0,0); fill-rule: nonzero; opacity: 1;" transform=" matrix(1 0 0 1 0 0) " stroke-linecap="round" />
        <path d="M 33.513 37.526 h -8.692 c -0.552 0 -1 -0.448 -1 -1 V 30.42 c 0 -0.552 0.448 -1 1 -1 h 8.692 c 0.552 0 1 0.448 1 1 v 6.106 C 34.513 37.079 34.065 37.526 33.513 37.526 z M 25.821 35.526 h 6.692 V 31.42 h -6.692 V 35.526 z" style="stroke: none; stroke-width: 1; stroke-dasharray: none; stroke-linecap: butt; stroke-linejoin: miter; stroke-miterlimit: 10; fill: rgb(0,0,0); fill-rule: nonzero; opacity: 1;" transform=" matrix(1 0 0 1 0 0) " stroke-linecap="round" />
        <path d="M 89 42.812 H 51.241 c -0.553 0 -1 -0.448 -1 -1 V 24.044 c 0 -0.552 0.447 -1 1 -1 H 89 c 0.553 0 1 0.448 1 1 v 17.768 C 90 42.364 89.553 42.812 89 42.812 z M 52.241 40.812 H 88 V 25.044 H 52.241 V 40.812 z" style="stroke: none; stroke-width: 1; stroke-dasharray: none; stroke-linecap: butt; stroke-linejoin: miter; stroke-miterlimit: 10; fill: rgb(0,0,0); fill-rule: nonzero; opacity: 1;" transform=" matrix(1 0 0 1 0 0) " stroke-linecap="round" />
        <path d="M 65.261 25.044 h -8.692 c -0.553 0 -1 -0.448 -1 -1 v -6.106 c 0 -0.552 0.447 -1 1 -1 h 8.692 c 0.553 0 1 0.448 1 1 v 6.106 C 66.261 24.597 65.813 25.044 65.261 25.044 z M 57.568 23.044 h 6.692 v -4.106 h -6.692 V 23.044 z" style="stroke: none; stroke-width: 1; stroke-dasharray: none; stroke-linecap: butt; stroke-linejoin: miter; stroke-miterlimit: 10; fill: rgb(0,0,0); fill-rule: nonzero; opacity: 1;" transform=" matrix(1 0 0 1 0 0) " stroke-linecap="round" />
        <path d="M 83.672 25.044 H 74.98 c -0.553 0 -1 -0.448 -1 -1 v -6.106 c 0 -0.552 0.447 -1 1 -1 h 8.691 c 0.553 0 1 0.448 1 1 v 6.106 C 84.672 24.597 84.225 25.044 83.672 25.044 z M 75.98 23.044 h 6.691 v -4.106 H 75.98 V 23.044 z" style="stroke: none; stroke-width: 1; stroke-dasharray: none; stroke-linecap: butt; stroke-linejoin: miter; stroke-miterlimit: 10; fill: rgb(0,0,0); fill-rule: nonzero; opacity: 1;" transform=" matrix(1 0 0 1 0 0) " stroke-linecap="round" />
    </g>
</svg>
