<svg width="848" height="842" viewBox="0 0 848 842" fill="none" xmlns="http://www.w3.org/2000/svg">
<g clip-path="url(#clip0_16_11)">
<g filter="url(#filter0_f_16_11)">
<path d="M568.214 404.43C551.266 310.153 463.116 255.924 371.325 283.307C279.534 310.689 218.862 409.313 235.809 503.59L251.252 589.493C268.2 683.77 356.35 737.999 448.141 710.616C539.932 683.234 600.604 584.61 583.656 490.333L568.214 404.43Z" fill="url(#paint0_radial_16_11)"/>
<path d="M568.214 404.43C551.266 310.153 463.116 255.924 371.325 283.307C279.534 310.689 218.862 409.313 235.809 503.59L251.252 589.493C268.2 683.77 356.35 737.999 448.141 710.616C539.932 683.234 600.604 584.61 583.656 490.333L568.214 404.43Z" stroke="#00E29A" stroke-opacity="0.7" stroke-width="20.4643"/>
</g>
<g style="mix-blend-mode:color" filter="url(#filter1_f_16_11)">
<rect width="470.161" height="444.202" rx="193.919" transform="matrix(-0.903583 0.428414 0.274723 0.961523 581.542 213.466)" fill="url(#paint1_radial_16_11)" fill-opacity="0.7"/>
</g>
<g style="mix-blend-mode:screen" filter="url(#filter2_f_16_11)">
<path d="M499.571 191.794C446.887 85.8693 330.214 61.0469 238.973 136.352L166.112 196.488C74.8716 271.793 43.6152 418.709 96.2988 524.634L152.694 638.021C205.377 743.946 322.051 768.768 413.291 693.463L486.153 633.327C577.393 558.022 608.649 411.106 555.966 305.181L499.571 191.794Z" fill="url(#paint2_radial_16_11)"/>
</g>
<g filter="url(#filter3_f_16_11)">
<path d="M687.406 437.358C739.703 352.37 725.496 225.677 655.675 154.382C585.854 83.087 486.859 94.1876 434.562 179.176L423.939 196.44C371.642 281.428 385.849 408.121 455.67 479.416C525.491 550.711 624.486 539.61 676.783 454.622L687.406 437.358Z" fill="url(#paint3_angular_16_11)" fill-opacity="0.7"/>
</g>
<g style="mix-blend-mode:lighten" filter="url(#filter4_f_16_11)">
<rect width="328.453" height="514.814" rx="164.226" transform="matrix(-0.903583 0.428414 0.274723 0.961523 706.569 93.1178)" fill="#5AE9FD" fill-opacity="0.7"/>
</g>
</g>
<defs>
<filter id="filter0_f_16_11" x="125.466" y="168.185" width="568.534" height="657.554" filterUnits="userSpaceOnUse" color-interpolation-filters="sRGB">
<feFlood flood-opacity="0" result="BackgroundImageFix"/>
<feBlend mode="normal" in="SourceGraphic" in2="BackgroundImageFix" result="shape"/>
<feGaussianBlur stdDeviation="48.7659" result="effect1_foregroundBlur_16_11"/>
</filter>
<filter id="filter1_f_16_11" x="108.21" y="185.014" width="643.867" height="685.438" filterUnits="userSpaceOnUse" color-interpolation-filters="sRGB">
<feFlood flood-opacity="0" result="BackgroundImageFix"/>
<feBlend mode="normal" in="SourceGraphic" in2="BackgroundImageFix" result="shape"/>
<feGaussianBlur stdDeviation="46.9041" result="effect1_foregroundBlur_16_11"/>
</filter>
<filter id="filter2_f_16_11" x="-36.3992" y="-14.2988" width="725.063" height="858.413" filterUnits="userSpaceOnUse" color-interpolation-filters="sRGB">
<feFlood flood-opacity="0" result="BackgroundImageFix"/>
<feBlend mode="normal" in="SourceGraphic" in2="BackgroundImageFix" result="shape"/>
<feGaussianBlur stdDeviation="53.5517" result="effect1_foregroundBlur_16_11"/>
</filter>
<filter id="filter3_f_16_11" x="270.562" y="-14.4362" width="570.222" height="662.67" filterUnits="userSpaceOnUse" color-interpolation-filters="sRGB">
<feFlood flood-opacity="0" result="BackgroundImageFix"/>
<feBlend mode="normal" in="SourceGraphic" in2="BackgroundImageFix" result="shape"/>
<feGaussianBlur stdDeviation="60.9188" result="effect1_foregroundBlur_16_11"/>
</filter>
<filter id="filter4_f_16_11" x="332.777" y="33.0904" width="592.231" height="755.774" filterUnits="userSpaceOnUse" color-interpolation-filters="sRGB">
<feFlood flood-opacity="0" result="BackgroundImageFix"/>
<feBlend mode="normal" in="SourceGraphic" in2="BackgroundImageFix" result="shape"/>
<feGaussianBlur stdDeviation="57.6881" result="effect1_foregroundBlur_16_11"/>
</filter>
<radialGradient id="paint0_radial_16_11" cx="0" cy="0" r="1" gradientUnits="userSpaceOnUse" gradientTransform="translate(482.223 471.064) rotate(80.2833) scale(945.977 749.698)">
<stop stop-color="#5AE9FD"/>
<stop offset="1" stop-color="#5AE9FD" stop-opacity="0"/>
</radialGradient>
<radialGradient id="paint1_radial_16_11" cx="0" cy="0" r="1" gradientUnits="userSpaceOnUse" gradientTransform="translate(235.081 222.101) rotate(90) scale(222.101 235.081)">
<stop stop-color="#38FF70"/>
<stop offset="1" stop-color="#4AE074" stop-opacity="0.65"/>
</radialGradient>
<radialGradient id="paint2_radial_16_11" cx="0" cy="0" r="1" gradientUnits="userSpaceOnUse" gradientTransform="translate(326.132 414.908) rotate(63.5557) scale(277.526 809.751)">
<stop stop-color="#8B78FF"/>
<stop offset="1" stop-color="#6349FF" stop-opacity="0.37"/>
</radialGradient>
<radialGradient id="paint3_angular_16_11" cx="0" cy="0" r="1" gradientUnits="userSpaceOnUse" gradientTransform="translate(555.673 316.899) rotate(121.606) scale(190.82 175.323)">
<stop stop-color="#6349FF" stop-opacity="0.37"/>
<stop offset="0.9999" stop-color="#8B78FF"/>
<stop offset="1" stop-color="#8B78FF"/>
</radialGradient>
<clipPath id="clip0_16_11">
<rect width="847.093" height="842" fill="white" transform="translate(0.906738)"/>
</clipPath>
</defs>
</svg>
