<?xml version="1.0" encoding="utf-8"?>
<svg version="1.0" id="Capa_1" xmlns="http://www.w3.org/2000/svg" xmlns:xlink="http://www.w3.org/1999/xlink" x="0px" y="0px"
     width="1200px" height="1199.999px" viewBox="0 0 1200 1199.999" enable-background="new 0 0 1200 1199.999" xml:space="preserve">
<g>
	<path fill-rule="evenodd" clip-rule="evenodd" fill="#656568" d="M511.286,824.547h91.477h1.395h91.481
		c-2.051,52.792,4.373,115.347,38.778,151.765H604.158h-1.395H472.512C506.913,939.894,513.337,877.339,511.286,824.547z"/>
    <path fill-rule="evenodd" clip-rule="evenodd" fill="#36343A" d="M108.262,203.3h983.472c16.696,0,30.351,13.658,30.351,30.358
		v615.172c0,16.699-13.655,30.358-30.351,30.358H108.262c-16.688,0-30.346-13.658-30.346-30.358V233.657
		C77.916,216.958,91.574,203.3,108.262,203.3z"/>
    <path fill-rule="evenodd" clip-rule="evenodd" fill="#54C5D1" d="M110.514,236.892h972.522c1.042,0,1.903,0.839,1.903,1.892
		v551.088c0,1.046-0.861,1.892-1.903,1.892H110.514c-1.057,0-1.903-0.846-1.903-1.892V238.784
		C108.611,237.731,109.457,236.892,110.514,236.892z"/>
    <path fill-rule="evenodd" clip-rule="evenodd" fill="#8FD5DD" d="M110.625,236.892h972.295
		c17.237,0-147.311,154.221-463.298,344.149C370.627,730.7,107.223,796.274,108.611,789.872V238.784
		C108.611,237.731,109.516,236.892,110.625,236.892z"/>
    <path fill-rule="evenodd" clip-rule="evenodd" fill="#00BDEB" d="M151.065,845.868c7.649,0,13.885-6.365,13.885-14.185
		s-6.235-14.185-13.885-14.185c-7.648,0-13.88,6.365-13.88,14.185S143.416,845.868,151.065,845.868z"/>
    <path fill-rule="evenodd" clip-rule="evenodd" fill="#919697" d="M204.788,845.868c7.648,0,13.888-6.365,13.888-14.185
		s-6.239-14.185-13.888-14.185c-7.642,0-13.88,6.365-13.88,14.185S197.146,845.868,204.788,845.868z"/>
    <path fill-rule="evenodd" clip-rule="evenodd" fill="#919697" d="M257.914,845.868c7.648,0,13.884-6.365,13.884-14.185
		s-6.235-14.185-13.884-14.185c-7.645,0-13.889,6.365-13.889,14.185S250.268,845.868,257.914,845.868z"/>
    <path fill-rule="evenodd" clip-rule="evenodd" fill="#36343A" d="M400.257,942.068h424.957c15.027,0,27.316,12.278,27.316,27.316
		v16.759c0,5.801-4.748,10.557-10.553,10.557h-460.32c-4.796,0-8.72-3.924-8.72-8.71v-18.606
		C372.938,954.346,385.234,942.068,400.257,942.068z"/>
</g>
</svg>
