<svg width="1416" height="2118" viewBox="0 0 1416 2118" fill="none" xmlns="http://www.w3.org/2000/svg">
<g filter="url(#filter0_f_16_5)">
<path d="M550.629 1209.46C519.868 1071.21 383.313 986.037 245.627 1019.22V1019.22C107.941 1052.4 21.2609 1191.38 52.0226 1329.62L55.8496 1346.82C86.6112 1485.07 223.165 1570.24 360.852 1537.06V1537.06C498.538 1503.88 585.218 1364.9 554.456 1226.65L550.629 1209.46Z" fill="url(#paint0_radial_16_5)" fill-opacity="0.83"/>
<path d="M550.629 1209.46C519.868 1071.21 383.313 986.037 245.627 1019.22V1019.22C107.941 1052.4 21.2609 1191.38 52.0226 1329.62L55.8496 1346.82C86.6112 1485.07 223.165 1570.24 360.852 1537.06V1537.06C498.538 1503.88 585.218 1364.9 554.456 1226.65L550.629 1209.46Z" stroke="#00E29A" stroke-opacity="0.7" stroke-width="108.863"/>
</g>
<g style="mix-blend-mode:color" filter="url(#filter1_f_16_5)">
<rect width="476.893" height="491.037" rx="238.446" transform="matrix(-0.933835 0.357705 0.333416 0.94278 580.282 989.241)" fill="url(#paint1_radial_16_5)"/>
</g>
<g style="mix-blend-mode:screen" filter="url(#filter2_f_16_5)">
<path d="M433.009 986.331C335.981 828.722 132.493 784.193 -21.4943 886.872L-31.1814 893.331C-185.169 996.01 -231.343 1207.02 -134.315 1364.62V1364.62C-37.2864 1522.23 166.202 1566.76 320.189 1464.08L329.876 1457.62C483.863 1354.94 530.038 1143.94 433.009 986.331V986.331Z" fill="url(#paint2_radial_16_5)" fill-opacity="0.95"/>
</g>
<g filter="url(#filter3_f_16_5)">
<path d="M711.782 1216.37C794.047 1108.36 776.885 949.382 672.153 862.982V862.982C567.422 776.583 414.781 795.481 332.516 903.49V903.49C250.251 1011.5 267.413 1170.48 372.145 1256.88V1256.88C476.876 1343.28 629.517 1324.38 711.782 1216.37V1216.37Z" fill="url(#paint3_angular_16_5)" fill-opacity="0.81"/>
</g>
<g style="mix-blend-mode:lighten" filter="url(#filter4_f_16_5)">
<rect width="722.76" height="744.198" rx="361.38" transform="matrix(-0.933835 0.357705 0.333416 0.94278 652.99 509)" fill="url(#paint4_linear_16_5)"/>
</g>
<defs>
<filter id="filter0_f_16_5" x="-527.248" y="438.561" width="1660.97" height="1679.16" filterUnits="userSpaceOnUse" color-interpolation-filters="sRGB">
<feFlood flood-opacity="0" result="BackgroundImageFix"/>
<feBlend mode="normal" in="SourceGraphic" in2="BackgroundImageFix" result="shape"/>
<feGaussianBlur stdDeviation="259.418" result="effect1_foregroundBlur_16_5"/>
</filter>
<filter id="filter1_f_16_5" x="-298.415" y="559.803" width="1475.77" height="1492.4" filterUnits="userSpaceOnUse" color-interpolation-filters="sRGB">
<feFlood flood-opacity="0" result="BackgroundImageFix"/>
<feBlend mode="normal" in="SourceGraphic" in2="BackgroundImageFix" result="shape"/>
<feGaussianBlur stdDeviation="249.514" result="effect1_foregroundBlur_16_5"/>
</filter>
<filter id="filter2_f_16_5" x="-754.846" y="261.859" width="1808.39" height="1827.24" filterUnits="userSpaceOnUse" color-interpolation-filters="sRGB">
<feFlood flood-opacity="0" result="BackgroundImageFix"/>
<feBlend mode="normal" in="SourceGraphic" in2="BackgroundImageFix" result="shape"/>
<feGaussianBlur stdDeviation="284.877" result="effect1_foregroundBlur_16_5"/>
</filter>
<filter id="filter3_f_16_5" x="-367.541" y="160.503" width="1779.38" height="1798.85" filterUnits="userSpaceOnUse" color-interpolation-filters="sRGB">
<feFlood flood-opacity="0" result="BackgroundImageFix"/>
<feBlend mode="normal" in="SourceGraphic" in2="BackgroundImageFix" result="shape"/>
<feGaussianBlur stdDeviation="324.068" result="effect1_foregroundBlur_16_5"/>
</filter>
<filter id="filter4_f_16_5" x="-536.184" y="0.707123" width="1951.54" height="1976.74" filterUnits="userSpaceOnUse" color-interpolation-filters="sRGB">
<feFlood flood-opacity="0" result="BackgroundImageFix"/>
<feBlend mode="normal" in="SourceGraphic" in2="BackgroundImageFix" result="shape"/>
<feGaussianBlur stdDeviation="306.882" result="effect1_foregroundBlur_16_5"/>
</filter>
<radialGradient id="paint0_radial_16_5" cx="0" cy="0" r="1" gradientUnits="userSpaceOnUse" gradientTransform="translate(411.975 1246.76) rotate(78.0334) scale(1155.04 1116.12)">
<stop stop-color="#5AE9FD"/>
<stop offset="1" stop-color="#8219EC"/>
</radialGradient>
<radialGradient id="paint1_radial_16_5" cx="0" cy="0" r="1" gradientUnits="userSpaceOnUse" gradientTransform="translate(238.446 245.519) rotate(90) scale(245.519 238.446)">
<stop stop-color="#BF14DB"/>
<stop offset="1" stop-color="#AA00FA"/>
</radialGradient>
<radialGradient id="paint2_radial_16_5" cx="0" cy="0" r="1" gradientUnits="userSpaceOnUse" gradientTransform="translate(149.347 1175.48) rotate(58.3824) scale(335.119 1083.43)">
<stop stop-color="#14FF00"/>
<stop offset="1" stop-color="#36FB16"/>
</radialGradient>
<radialGradient id="paint3_angular_16_5" cx="0" cy="0" r="1" gradientUnits="userSpaceOnUse" gradientTransform="translate(522.149 1059.93) rotate(127.295) scale(247.567 245.648)">
<stop stop-color="#0019FA"/>
<stop offset="0.9999" stop-color="#D700FA"/>
<stop offset="1" stop-color="#8F00FF"/>
</radialGradient>
<linearGradient id="paint4_linear_16_5" x1="361.38" y1="0" x2="361.38" y2="744.198" gradientUnits="userSpaceOnUse">
<stop stop-color="#8C00FA"/>
<stop offset="1" stop-color="#149FDB"/>
</linearGradient>
</defs>
</svg>
